<svg width="57" height="57" viewBox="0 0 57 57" fill="none" xmlns="http://www.w3.org/2000/svg">
<circle cx="28.5" cy="28.5" r="28.5" fill="white"/>
<path d="M32.3947 32.6885L28.3462 31.6765L28.097 30.4285H32.4285C32.58 30.4285 32.7253 30.3683 32.8325 30.2611C32.9397 30.1539 32.9999 30.0086 32.9999 29.8571V24.8891C33.3288 24.4514 33.5067 23.9186 33.5067 23.3711C33.5067 22.8236 33.3288 22.2908 32.9999 21.8531V17.06C33.0006 16.3576 32.8337 15.6651 32.5128 15.0403C32.192 14.4154 31.7266 13.8762 31.1553 13.4674C30.754 12.7192 30.1566 12.0943 29.4272 11.6596C28.6978 11.225 27.8639 10.997 27.0148 11H24.4285C22.459 11.0023 20.5709 11.7857 19.1782 13.1783C17.7856 14.5709 17.0022 16.4591 17 18.4286V21.6965C16.5902 22.1581 16.3639 22.7539 16.3639 23.3711C16.3639 23.9883 16.5902 24.5841 17 25.0457V29.8571C17 30.0086 17.0602 30.1539 17.1673 30.2611C17.2745 30.3683 17.4198 30.4285 17.5714 30.4285H21.9028L21.6537 31.6765L17.6051 32.6885C16.2898 33.017 15.1221 33.7759 14.2877 34.8445C13.4532 35.913 13 37.2298 13 38.5856V45.8569C13 46.0085 13.0602 46.1538 13.1674 46.261C13.2745 46.3682 13.4199 46.4284 13.5714 46.4284H36.4284C36.58 46.4284 36.7253 46.3682 36.8325 46.261C36.9396 46.1538 36.9999 46.0085 36.9999 45.8569V38.5856C36.9999 37.2298 36.5466 35.913 35.7122 34.8445C34.8778 33.7759 33.7101 33.017 32.3947 32.6885ZM17.5068 23.3708C17.5077 23.036 17.626 22.7122 17.8413 22.4558C18.0565 22.1994 18.355 22.0267 18.6845 21.968C18.7373 22.9239 18.8843 23.8723 19.1234 24.7994H18.9354C18.5565 24.7994 18.1932 24.6489 17.9252 24.381C17.6573 24.113 17.5068 23.7497 17.5068 23.3708ZM19.7925 21.1423V20.94C20.1148 20.3421 20.5693 19.8257 21.1213 19.4301C21.6734 19.0345 22.3085 18.7701 22.9782 18.6571L24.4405 18.4137C25.1922 18.2853 25.9028 17.9807 26.5141 17.5247C27.1254 17.0687 27.6199 16.4743 27.957 15.7903L27.9868 15.8349C29.0031 17.357 29.7134 19.0624 30.0782 20.856V21.1417C30.0732 24.1255 29.0789 27.0234 27.2508 29.3816C26.9778 29.7352 26.6272 30.0212 26.2259 30.2175C25.8247 30.4138 25.3837 30.5151 24.9371 30.5136C24.4901 30.5152 24.0487 30.4139 23.6471 30.2176C23.2455 30.0213 22.8945 29.7353 22.6211 29.3816C20.7928 27.0234 19.7981 24.1256 19.7925 21.1417V21.1423ZM31.1862 21.9685C31.5337 22.0352 31.8441 22.2285 32.0573 22.511C32.2705 22.7935 32.3712 23.1451 32.3399 23.4976C32.3087 23.8501 32.1478 24.1784 31.8883 24.4191C31.6287 24.6597 31.2892 24.7954 30.9353 24.7999H30.7473C30.9862 23.8726 31.1332 22.9246 31.1862 21.9685ZM26.9091 35.1204C26.3148 35.4117 25.6617 35.5632 24.9999 35.5632C24.3381 35.5632 23.6851 35.4117 23.0908 35.1204L22.7211 32.1639L22.9291 31.125C23.5403 31.473 24.2315 31.6562 24.9348 31.6565C25.684 31.6564 26.4185 31.449 27.0571 31.057L27.2782 32.161L26.9091 35.1204ZM24.9999 36.7142C25.5944 36.7119 26.1846 36.6121 26.7468 36.4187L25.6382 45.2855H24.3616L23.2531 36.4187C23.8153 36.6121 24.4054 36.7119 24.9999 36.7142ZM28.7216 29.2856C29.4219 28.2476 29.986 27.124 30.3999 25.9422H30.9353C31.2509 25.9406 31.5634 25.8803 31.857 25.7645V29.2856H28.7216ZM24.4285 12.1429H27.0148C27.6767 12.1409 28.3259 12.3243 28.8889 12.6725C29.4518 13.0206 29.906 13.5195 30.1999 14.1126C30.2446 14.2014 30.3116 14.2772 30.3942 14.3326C30.8442 14.6311 31.2133 15.0364 31.4686 15.5123C31.7239 15.9882 31.8573 16.5199 31.857 17.06V20.9777C31.6523 20.901 31.4385 20.8509 31.221 20.8285V20.7994C31.2211 20.761 31.2172 20.7227 31.2096 20.6851C30.8197 18.7251 30.0477 16.8611 28.9376 15.1994L28.2679 14.2C28.2053 14.1059 28.1161 14.0325 28.0117 13.9891C27.9074 13.9456 27.7924 13.9342 27.6815 13.9561C27.5706 13.978 27.4687 14.0323 27.3887 14.1121C27.3086 14.1919 27.2541 14.2937 27.2319 14.4046C27.0836 15.1291 26.7198 15.7918 26.1882 16.306C25.6566 16.8201 24.9821 17.1616 24.2531 17.2857L22.7908 17.5297C21.9216 17.6759 21.0991 18.0248 20.39 18.5484C19.6809 19.0719 19.1053 19.7552 18.7097 20.5428C18.6701 20.6222 18.6496 20.7096 18.6497 20.7983V20.8285C18.4774 20.8471 18.3075 20.8837 18.1428 20.9377V18.4286C18.1448 16.7621 18.8077 15.1644 19.986 13.9861C21.1644 12.8077 22.762 12.1448 24.4285 12.1429ZM18.1428 25.8045C18.398 25.8923 18.6656 25.9388 18.9354 25.9422H19.4708C19.8847 27.124 20.4488 28.2476 21.1491 29.2856H18.1428V25.8045ZM14.1429 38.5856C14.1429 37.4848 14.5108 36.4156 15.1883 35.5479C15.8657 34.6803 16.8138 34.064 17.8817 33.797L20.0531 33.2542C19.5446 34.8747 19.2858 36.5632 19.2857 38.2616V38.5096C18.747 38.6486 18.2776 38.9794 17.9653 39.4399C17.6531 39.9003 17.5195 40.4588 17.5896 41.0107C17.6597 41.5626 17.9287 42.07 18.3461 42.4377C18.7635 42.8055 19.3008 43.0084 19.8571 43.0084C20.4134 43.0084 20.9507 42.8055 21.3681 42.4377C21.7855 42.07 22.0545 41.5626 22.1246 41.0107C22.1947 40.4588 22.0611 39.9003 21.7489 39.4399C21.4366 38.9794 20.9672 38.6486 20.4285 38.5096V38.2616C20.4283 36.4414 20.7469 34.6353 21.3697 32.925L21.6554 32.853L23.2097 45.2855H17.936C17.3223 43.9456 17.0031 42.4896 17 41.0158V40.7141H15.8571V41.0158C15.8603 42.4794 16.1439 43.9287 16.6925 45.2855H14.1429V38.5856ZM19.8571 39.5713C20.0831 39.5713 20.3041 39.6383 20.492 39.7639C20.68 39.8895 20.8265 40.0679 20.913 40.2768C20.9995 40.4856 21.0221 40.7154 20.978 40.9371C20.9339 41.1588 20.825 41.3624 20.6652 41.5222C20.5054 41.6821 20.3018 41.7909 20.0801 41.835C19.8584 41.8791 19.6286 41.8565 19.4198 41.77C19.2109 41.6835 19.0324 41.537 18.9069 41.3491C18.7813 41.1611 18.7143 40.9402 18.7143 40.7141C18.7143 40.411 18.8347 40.1203 19.049 39.906C19.2633 39.6917 19.554 39.5713 19.8571 39.5713ZM35.857 45.2855H33.3073C33.8559 43.9287 34.1395 42.4794 34.1427 41.0158V40.7141H32.9999V41.0158C32.9967 42.4896 32.6776 43.9456 32.0639 45.2855H26.7902L28.3439 32.853L28.5965 32.9165C29.1843 34.5292 29.5098 36.2258 29.5605 37.9416C29.0735 38.0692 28.6425 38.3543 28.3344 38.7524C28.0263 39.1505 27.8585 39.6393 27.8571 40.1427V42.9998C27.8571 43.1514 27.9173 43.2967 28.0244 43.4039C28.1316 43.511 28.2769 43.5713 28.4285 43.5713H29.5713V42.4284H28.9999V40.1427C28.9999 39.8396 29.1203 39.5489 29.3346 39.3346C29.549 39.1203 29.8396 38.9999 30.1427 38.9999C30.4459 38.9999 30.7365 39.1203 30.9509 39.3346C31.1652 39.5489 31.2856 39.8396 31.2856 40.1427V42.4284H30.7142V43.5713H31.857C32.0086 43.5713 32.1539 43.511 32.2611 43.4039C32.3682 43.2967 32.4285 43.1514 32.4285 42.9998V40.1427C32.4267 39.6353 32.2561 39.143 31.9437 38.7432C31.6312 38.3435 31.1947 38.059 30.7027 37.9347C30.6583 36.3427 30.3929 34.7646 29.9142 33.2456L32.1176 33.797C33.1856 34.0639 34.1338 34.6801 34.8113 35.5478C35.4889 36.4154 35.857 37.4847 35.857 38.5856V45.2855Z" fill="#4E88FF"/>
<path d="M45.0001 16.3326C44.9996 15.338 44.6509 14.375 44.0144 13.6109L43.4738 12.9623C42.9623 12.3481 42.322 11.854 41.5983 11.5149C40.8746 11.1758 40.0851 11 39.2859 11C38.4866 11 37.6972 11.1758 36.9734 11.5149C36.2497 11.854 35.6094 12.3481 35.0979 12.9623L34.5579 13.6103C33.8782 14.4253 33.5279 15.465 33.5759 16.5252C33.6239 17.5853 34.0667 18.5892 34.8173 19.3394L36.1922 20.7142L34.3105 22.5959C34.2033 22.7031 34.1432 22.8484 34.1432 22.9999C34.1432 23.1515 34.2033 23.2968 34.3105 23.4039L36.5962 25.6896C36.7033 25.7968 36.8486 25.8569 37.0002 25.8569C37.1517 25.8569 37.297 25.7968 37.4042 25.6896L39.2859 23.8079L41.1676 25.6896C41.2747 25.7968 41.42 25.8569 41.5716 25.8569C41.7231 25.8569 41.8684 25.7968 41.9756 25.6896L44.2613 23.4039C44.3684 23.2968 44.4286 23.1515 44.4286 22.9999C44.4286 22.8484 44.3684 22.7031 44.2613 22.5959L42.3796 20.7142L43.7544 19.3394C44.1505 18.9455 44.4646 18.4769 44.6784 17.9607C44.8923 17.4446 45.0016 16.8912 45.0001 16.3326ZM39.2859 12.1429C40.3263 12.1434 41.3311 12.5219 42.1133 13.208C42.0479 13.8807 41.845 14.5329 41.5173 15.124C40.8532 14.695 40.0793 14.4668 39.2887 14.4668C38.4981 14.4668 37.7243 14.695 37.0602 15.124C36.7293 14.5328 36.5237 13.8798 36.4562 13.2057C37.2394 12.5202 38.245 12.1425 39.2859 12.1429ZM37.8773 16.212C37.8242 16.1588 37.7762 16.1023 37.7259 16.0468C38.1932 15.7538 38.7337 15.5984 39.2853 15.5984C39.8369 15.5984 40.3774 15.7538 40.8447 16.0468C40.7944 16.104 40.747 16.1611 40.6944 16.212L39.2859 17.6205L37.8773 16.212ZM37.0002 24.4776L35.5225 22.9999L37.0002 21.5222L38.4779 22.9999L37.0002 24.4776ZM43.0493 22.9999L41.5716 24.4776L35.6253 18.5314C35.0766 17.9828 34.7528 17.2488 34.7177 16.4736C34.6826 15.6985 34.9387 14.9382 35.4356 14.3423L35.4893 14.2771C35.7644 15.315 36.3095 16.2614 37.0693 17.02L43.0493 22.9999ZM41.5716 19.9062L40.0939 18.4285L41.5024 17.02C42.2616 16.2598 42.8055 15.3117 43.0784 14.2726L43.1356 14.3428C43.6322 14.9388 43.8881 15.699 43.8529 16.474C43.8177 17.2491 43.4939 17.9829 42.9453 18.5314L41.5716 19.9062Z" fill="#4E88FF"/>
</svg>
